<svg width="1280" height="640" viewBox="0 0 1280 640" fill="none" xmlns="http://www.w3.org/2000/svg">
  <defs>
    <linearGradient id="bg" x1="120" y1="40" x2="1120" y2="600" gradientUnits="userSpaceOnUse">
      <stop offset="0" stop-color="#0B1220"/>
      <stop offset="0.55" stop-color="#12233F"/>
      <stop offset="1" stop-color="#1F4A78"/>
    </linearGradient>
    <linearGradient id="accent" x1="216" y1="152" x2="840" y2="488" gradientUnits="userSpaceOnUse">
      <stop offset="0" stop-color="#F6B73C"/>
      <stop offset="1" stop-color="#68E0CF"/>
    </linearGradient>
    <linearGradient id="card" x1="854" y1="124" x2="1098" y2="420" gradientUnits="userSpaceOnUse">
      <stop offset="0" stop-color="#132645" stop-opacity="0.95"/>
      <stop offset="1" stop-color="#0A1529" stop-opacity="0.95"/>
    </linearGradient>
    <filter id="shadow" x="166" y="104" width="968" height="392" filterUnits="userSpaceOnUse" color-interpolation-filters="sRGB">
      <feFlood flood-opacity="0" result="BackgroundImageFix"/>
      <feColorMatrix in="SourceAlpha" type="matrix" values="0 0 0 0 0 0 0 0 0 0 0 0 0 0 0 0 0 0 127 0" result="hardAlpha"/>
      <feOffset dy="10"/>
      <feGaussianBlur stdDeviation="25"/>
      <feComposite in2="hardAlpha" operator="out"/>
      <feColorMatrix type="matrix" values="0 0 0 0 0.0117647 0 0 0 0 0.0588235 0 0 0 0 0.129412 0 0 0 0.35 0"/>
      <feBlend mode="normal" in2="BackgroundImageFix" result="effect1_dropShadow_0_1"/>
      <feBlend mode="normal" in="SourceGraphic" in2="effect1_dropShadow_0_1" result="shape"/>
    </filter>
  </defs>

  <rect width="1280" height="640" rx="28" fill="url(#bg)"/>
  <circle cx="1088" cy="118" r="178" fill="#1E6BA8" fill-opacity="0.18"/>
  <circle cx="204" cy="518" r="144" fill="#F6B73C" fill-opacity="0.12"/>
  <path d="M0 536C126 476 240 454 342 470C482 491 542 595 706 590C884 585 1020 470 1280 510V640H0V536Z" fill="#09111F" fill-opacity="0.28"/>

  <g filter="url(#shadow)">
    <rect x="216" y="144" width="848" height="292" rx="28" fill="#0D1729" fill-opacity="0.72" stroke="rgba(255,255,255,0.14)"/>
    <rect x="216.75" y="144.75" width="846.5" height="290.5" rx="27.25" stroke="url(#accent)" stroke-opacity="0.45" stroke-width="1.5"/>
  </g>

  <text x="264" y="230" fill="#EAF2FF" font-family="Segoe UI, Arial, sans-serif" font-size="62" font-weight="700" letter-spacing="0.5">
    MatMul Tiling Analyzer
  </text>
  <text x="266" y="278" fill="#AFC6E9" font-family="Segoe UI, Arial, sans-serif" font-size="23" font-weight="500">
    Source-grounded tiling analysis for mat_mul_v3 on Ascend950 (DAV_3510)
  </text>

  <g opacity="0.95">
    <rect x="266" y="322" width="126" height="34" rx="17" fill="#143053"/>
    <text x="290" y="344" fill="#9BD2FF" font-family="Segoe UI, Arial, sans-serif" font-size="16" font-weight="600">tiling_key</text>

    <rect x="406" y="322" width="134" height="34" rx="17" fill="#20375C"/>
    <text x="432" y="344" fill="#D6E6FF" font-family="Segoe UI, Arial, sans-serif" font-size="16" font-weight="600">tiling_data</text>

    <rect x="554" y="322" width="124" height="34" rx="17" fill="#16394A"/>
    <text x="578" y="344" fill="#7BE5D3" font-family="Segoe UI, Arial, sans-serif" font-size="16" font-weight="600">stream-k</text>

    <rect x="692" y="322" width="110" height="34" rx="17" fill="#4A3215"/>
    <text x="719" y="344" fill="#F6C86D" font-family="Segoe UI, Arial, sans-serif" font-size="16" font-weight="600">aswt</text>
  </g>

  <g>
    <path d="M266 387H782" stroke="#345A88" stroke-width="2" stroke-dasharray="8 10"/>
    <circle cx="310" cy="387" r="9" fill="#F6B73C"/>
    <circle cx="430" cy="387" r="9" fill="#68E0CF"/>
    <circle cx="548" cy="387" r="9" fill="#9BD2FF"/>
    <circle cx="666" cy="387" r="9" fill="#F6B73C"/>
    <circle cx="782" cy="387" r="9" fill="#68E0CF"/>
    <text x="266" y="414" fill="#8EA9CE" font-family="Consolas, monospace" font-size="17">host strategy selection</text>
    <text x="542" y="414" fill="#8EA9CE" font-family="Consolas, monospace" font-size="17">kernel dispatch</text>
  </g>

  <g>
    <rect x="850" y="170" width="214" height="214" rx="26" fill="url(#card)" stroke="#3E618F" stroke-opacity="0.55"/>
    <text x="880" y="215" fill="#EAF2FF" font-family="Segoe UI, Arial, sans-serif" font-size="24" font-weight="700">Core Load</text>
    <rect x="882" y="246" width="34" height="108" rx="10" fill="#1C385E"/>
    <rect x="930" y="224" width="34" height="130" rx="10" fill="#2A5A87"/>
    <rect x="978" y="264" width="34" height="90" rx="10" fill="#68E0CF"/>
    <rect x="1026" y="202" width="34" height="152" rx="10" fill="#F6B73C"/>
    <text x="878" y="378" fill="#93AFD2" font-family="Consolas, monospace" font-size="16">AIC workload sketch</text>
  </g>

  <text x="266" y="486" fill="#C6D9F3" font-family="Segoe UI, Arial, sans-serif" font-size="20" font-weight="600">
    Predict strategy, decode tiling, and inspect per-core workload with a single Python CLI.
  </text>
</svg>
